<?xml version="1.0" encoding="utf-8"?>
<!-- Generator: Adobe Illustrator 21.1.0, SVG Export Plug-In . SVG Version: 6.00 Build 0)  -->
<svg version="1.1" id="Layer_1" xmlns="http://www.w3.org/2000/svg" xmlns:xlink="http://www.w3.org/1999/xlink" x="0px" y="0px"
	 viewBox="0 0 18 18" style="enable-background:new 0 0 18 18;" xml:space="preserve">
<style type="text/css">
	.st0{fill:#9B9B9B;}
</style>
<title>copy</title>
<desc>Created with Sketch.</desc>
<g>
	<path class="st0" d="M15,5.6H8.6c-1.7,0-3,1.3-3,3V15c0,1.7,1.3,3,3,3H15c1.7,0,3-1.3,3-3V8.6C18,6.9,16.7,5.6,15,5.6z M16,15
		c0,0.6-0.4,1-1,1H8.6c-0.6,0-1-0.4-1-1V8.6c0-0.6,0.4-1,1-1H15c0.6,0,1,0.4,1,1V15z"/>
	<path class="st0" d="M3.4,10.4H2.6C2.3,10.4,2,10.1,2,9.8V2.6C2,2.3,2.3,2,2.6,2h7.2c0.3,0,0.6,0.3,0.6,0.6v0.8c0,0.6,0.4,1,1,1
		c0.6,0,1-0.4,1-1V2.6c0-1.4-1.2-2.6-2.6-2.6H2.6C1.2,0,0,1.2,0,2.6v7.2c0,1.4,1.2,2.6,2.6,2.6h0.8c0.6,0,1-0.4,1-1
		C4.4,10.8,4,10.4,3.4,10.4z"/>
</g>
</svg>
